<svg width="299" height="325" viewBox="0 0 299 325" fill="none" xmlns="http://www.w3.org/2000/svg">
<path d="M213.646 97.7505C199.367 83.4467 184.003 70.2682 167.692 58.3328C178.849 51.5918 190.555 45.806 202.686 41.0372C205.903 39.8305 208.92 38.9255 211.937 38.0205C214.384 40.9819 217.537 43.2807 221.105 44.7056C224.673 46.1306 228.542 46.636 232.356 46.1755C236.171 45.7149 239.808 44.3032 242.934 42.0701C246.061 39.8369 248.576 36.8538 250.248 33.395C257.431 34.038 264.208 37.0031 269.555 41.8416C281.521 53.8078 281.823 77.9411 270.561 108.007C275.488 114.543 280.013 121.18 284.136 128.118C285.845 124.096 287.655 120.174 289.063 116.253C303.844 77.5389 301.934 45.8639 283.733 27.965C274.623 19.3494 262.766 14.2221 250.248 13.485C248.16 9.1305 244.755 5.54299 240.515 3.22993C236.275 0.916876 231.416 -0.00462705 226.624 0.595774C221.832 1.19618 217.349 3.28809 213.812 6.57559C210.274 9.8631 207.859 14.1798 206.909 18.915C203.188 20.0211 199.468 21.1272 195.546 22.6355C179.485 28.9756 164.092 36.8911 149.592 46.2661C135.077 36.7461 119.649 28.6955 103.538 22.2333C64.8239 7.5522 33.1489 9.3622 15.3506 27.5628C-1.34161 44.3555 -4.05661 72.2094 7.0045 106.599C4.47992 109.846 2.87498 113.711 2.35788 117.791C1.84078 121.871 2.43055 126.015 4.06539 129.788C5.70023 133.562 8.31994 136.826 11.65 139.239C14.9801 141.652 18.8979 143.125 22.9928 143.503C26.2106 149.637 29.7301 155.771 33.6517 161.804C24.3111 176.328 16.4615 191.758 10.2223 207.859C-4.55939 246.472 -2.64883 278.248 15.5517 296.046C21.0892 301.221 27.6095 305.232 34.726 307.84C41.8425 310.449 49.4103 311.601 56.9806 311.23C73.0443 310.715 88.8837 307.309 103.739 301.174C119.834 294.84 135.261 286.925 149.793 277.544C164.205 287.116 179.531 295.233 195.546 301.778C207.325 306.408 219.668 309.451 232.249 310.828C234.457 315.524 238.181 319.341 242.822 321.665C247.462 323.989 252.75 324.685 257.833 323.64C262.917 322.596 267.501 319.872 270.849 315.906C274.197 311.941 276.115 306.965 276.292 301.778C278.961 300.125 281.454 298.204 283.733 296.046C301.934 277.846 303.844 246.472 289.063 207.859C271.715 166.387 246.048 128.912 213.646 97.7505ZM96.3984 282.572C66.2317 294.136 41.5956 293.934 29.5289 281.767C17.4623 269.6 17.1606 245.366 28.8251 214.998C33.5615 202.871 39.3136 191.165 46.0201 180.005C57.9902 196.257 71.1667 211.585 85.4378 225.858C89.7617 230.182 94.1862 234.406 98.6106 238.428C104.644 235.344 110.778 231.825 117.012 227.869C111.18 222.641 105.348 217.814 99.7167 211.68C77.0847 189.441 57.6587 164.16 41.9978 136.565C45.1428 133.305 47.2567 129.19 48.0748 124.735C48.8929 120.28 48.379 115.683 46.5973 111.519C44.8156 107.354 41.8453 103.808 38.0581 101.323C34.271 98.8383 29.8351 97.5257 25.3056 97.5494C17.7639 72.4105 19.0712 52.4 29.6295 41.8416C33.3482 38.5644 37.6811 36.0589 42.3765 34.4708C47.0719 32.8826 52.0361 32.2435 56.9806 32.5905C70.5496 33.0437 83.9303 35.9037 96.4989 41.0372C108.63 45.806 120.336 51.5918 131.492 58.3328C115.181 70.2682 99.8177 83.4467 85.5384 97.7505C81.1139 102.175 76.79 106.801 72.5667 111.426C75.59 117.799 78.9465 124.009 82.6223 130.029C88.0523 123.895 93.5828 117.862 99.5156 111.929C114.985 96.4739 131.812 82.4402 149.793 69.9972C167.578 82.4936 184.233 96.5245 199.568 111.929C215.023 127.398 229.057 144.225 241.5 162.207C229.027 180.165 214.996 196.99 199.568 212.484C170.305 242.623 135.199 266.472 96.3984 282.572ZM269.555 281.667L267.946 282.974C265.306 280.735 262.19 279.127 258.836 278.27C255.482 277.413 251.978 277.33 248.587 278.028C245.196 278.725 242.008 280.185 239.265 282.296C236.522 284.407 234.294 287.115 232.752 290.214C222.416 288.883 212.284 286.283 202.585 282.471C190.434 277.748 178.724 271.961 167.592 265.176C183.903 253.24 199.266 240.062 213.546 225.758C227.875 211.539 241.056 196.206 252.963 179.904C259.704 191.061 265.49 202.767 270.259 214.898C281.722 245.366 281.722 269.701 269.555 281.667Z" fill="black"/>
<path d="M156.244 194.4C174.334 191.463 186.618 174.418 183.682 156.328C180.745 138.238 163.7 125.954 145.61 128.89C127.52 131.827 115.236 148.872 118.173 166.962C121.109 185.052 138.154 197.336 156.244 194.4Z" fill="black"/>
</svg>
